<html>
<head>
<meta charset="UTF-8">
<meta name="viewport" content="width=device-width, initial-scale=1.0"/>

<style>
.comment
{
    padding-left: 20px;
    margin-top: 4px;
    margin-right: 4px;
    margin-bottom: 4px;
    border: 2px #000 solid;
}
.submission
{
    border: 4px #00f solid;
    padding-left: 20px;
}
.hidden
{
    display: none;
}
</style>
</head>
<body><div class="submission" id="t3_6urltz">
    <p class="userinfo">
        <a href="https://www.reddit.com/u/Matt14451">Matt14451</a>
        <span class="score"> | 22 points</span>
        <span class="timestamp"> | Aug 19 2017 21:08:43</span>
    </p>
    <strong>[TV] Pryde of the X-Men</strong>
    <p><p>The 1989 aired pilot</p>
<p>http://links.snahp.it/904Pryde_of_the_X-Men</p></p>
    <p class="toolbar">
        <a href="https://www.reddit.com/r/megalinks/comments/6urltz">permalink</a>
    </p>
</div>
<div class="comment" id="t1_dluurny">
    <p class="userinfo">
        <a
        class="toggle_hide_button"
        href="javascript:void(0)"
        onclick="toggle_collapse(this.parentElement.parentElement)">[-]
        </a>
        <a href="https://www.reddit.com/u/Matt14451">Matt14451</a>
        <span class="score"> | 1 points</span>
        <span class="timestamp"> | Aug 19 2017 21:16:14</span>
    </p>
    <div class="collapsible">
        <p>General
Complete name                            : E:\Video\Marvel\Pryde of the X-Men.mp4
Format                                   : MPEG-4
Format profile                           : Base Media / Version 2
Codec ID                                 : mp42 (isom/mp42)
File size                                : 339 MiB
Duration                                 : 21 min 51 s
Overall bit rate mode                    : Variable
Overall bit rate                         : 2 167 kb/s
Encoded date                             : UTC 2017-05-18 05:16:49
Tagged date                              : UTC 2017-05-18 05:16:49
gsst                                     : 0
gstd                                     : 1311671</p>
<p>Video
ID                                       : 1
Format                                   : AVC
Format/Info                              : Advanced Video Codec
Format profile                           : High@L3.1
Format settings, CABAC                   : Yes
Format settings, RefFrames               : 1 frame
Codec ID                                 : avc1
Codec ID/Info                            : Advanced Video Coding
Duration                                 : 21 min 51 s
Bit rate                                 : 1 973 kb/s
Maximum bit rate                         : 4 893 kb/s
Width                                    : 1 280 pixels
Height                                   : 720 pixels
Display aspect ratio                     : 16:9
Frame rate mode                          : Constant
Frame rate                               : 29.970 (30000/1001) FPS
Color space                              : YUV
Chroma subsampling                       : 4:2:0
Bit depth                                : 8 bits
Scan type                                : Progressive
Bits/(Pixel*Frame)                       : 0.071
Stream size                              : 308 MiB (91%)
Tagged date                              : UTC 2017-05-18 05:17:19
Color range                              : Limited
Color primaries                          : BT.709
Transfer characteristics                 : BT.709
Matrix coefficients                      : BT.709</p>
<p>Audio
ID                                       : 2
Format                                   : AAC
Format/Info                              : Advanced Audio Codec
Format profile                           : LC
Codec ID                                 : 40
Duration                                 : 21 min 51 s
Bit rate mode                            : Variable
Bit rate                                 : 192 kb/s
Maximum bit rate                         : 206 kb/s
Channel(s)                               : 2 channels
Channel positions                        : Front: L R
Sampling rate                            : 44.1 kHz
Frame rate                               : 43.066 FPS (1024 SPF)
Compression mode                         : Lossy
Stream size                              : 30.0 MiB (9%)
Title                                    : IsoMedia File Produced by Google, 5-11-2011
Encoded date                             : UTC 2017-05-18 05:17:08
Tagged date                              : UTC 2017-05-18 05:17:19</p>
        <p class="toolbar">
            <a href="https://www.reddit.com/r/megalinks/comments/6urltz/_/dluurny">permalink</a>
        </p>
        
    </div>
</div>
</body>

<script>
function toggle_collapse(comment_div)
{
    var button = comment_div.getElementsByClassName("toggle_hide_button")[0];
    var collapsible = comment_div.getElementsByClassName("collapsible")[0];
    if (collapsible.classList.contains("hidden"))
    {
        collapsible.classList.remove("hidden");
        button.innerText = "[-]";
    }
    else
    {
        collapsible.classList.add("hidden");
        button.innerText = "[+]";
    }
}
</script>
</html>
